<svg width="23" height="24" viewBox="0 0 23 24" fill="none" xmlns="http://www.w3.org/2000/svg">
<path fill-rule="evenodd" clip-rule="evenodd" d="M11.3937 12.8078V12.8078C9.86661 12.8078 8.62891 11.4847 8.62891 9.85215V9.85215C8.62891 8.21964 9.86661 6.89648 11.3937 6.89648V6.89648C12.9208 6.89648 14.1585 8.21964 14.1585 9.85215V9.85215C14.1585 11.4847 12.9208 12.8078 11.3937 12.8078Z" stroke="#797C7B" stroke-width="1.5" stroke-linecap="round" stroke-linejoin="round"/>
<path fill-rule="evenodd" clip-rule="evenodd" d="M12.158 19.9671C11.7291 20.3907 11.0581 20.3907 10.6292 19.9671C8.92089 18.2798 4.94238 13.9141 4.94238 9.85212C4.94238 6.04325 7.83068 2.95557 11.3936 2.95557C14.9565 2.95557 17.8448 6.04325 17.8448 9.85212C17.8448 13.9141 13.8663 18.2798 12.158 19.9671Z" stroke="#797C7B" stroke-width="1.5" stroke-linecap="round" stroke-linejoin="round"/>
</svg>
