<svg width="25" height="26" viewBox="0 0 25 26" fill="none" xmlns="http://www.w3.org/2000/svg">
<path d="M15.6 17.0771L15.4492 17.8118C15.7847 17.8807 16.1242 17.7135 16.2742 17.4056L15.6 17.0771ZM8.31999 9.60584L7.97759 8.93857C7.68049 9.09102 7.51997 9.42154 7.58384 9.74931L8.31999 9.60584ZM8.68817 9.41692L9.03058 10.0842H9.03058L8.68817 9.41692ZM9.6892 6.71485L10.388 6.44248L9.6892 6.71485ZM8.843 4.54376L8.1442 4.81613L8.843 4.54376ZM20.5325 16.5404L20.2477 17.2342L20.5325 16.5404ZM18.417 15.6719L18.7018 14.9781L18.417 15.6719ZM15.7841 16.6993L16.4583 17.0277V17.0277L15.7841 16.6993ZM16.93 11.7405C16.93 12.1547 17.2658 12.4905 17.68 12.4905C18.0942 12.4905 18.43 12.1547 18.43 11.7405H16.93ZM17.3633 10.1067L18.0588 9.826L17.3633 10.1067ZM15.112 7.79618L15.4054 7.10595L15.112 7.79618ZM13.52 6.7212C13.1058 6.7212 12.77 7.05698 12.77 7.4712C12.77 7.88541 13.1058 8.2212 13.52 8.2212V6.7212ZM21.09 11.7405C21.09 12.1547 21.4258 12.4905 21.84 12.4905C22.2542 12.4905 22.59 12.1547 22.59 11.7405H21.09ZM21.2067 8.47292L21.9022 8.19221L21.2067 8.47292ZM16.7039 3.85187L16.9973 3.16164L16.9973 3.16164L16.7039 3.85187ZM13.52 2.4519C13.1058 2.4519 12.77 2.78769 12.77 3.2019C12.77 3.61612 13.1058 3.9519 13.52 3.9519V2.4519ZM21.09 18.5223V20.2791H22.59V18.5223H21.09ZM5.2 3.9519H6.91177V2.4519H5.2V3.9519ZM15.6 17.0771C15.7508 16.3424 15.751 16.3425 15.7512 16.3425C15.7513 16.3425 15.7515 16.3426 15.7516 16.3426C15.7518 16.3426 15.752 16.3427 15.7521 16.3427C15.7524 16.3428 15.7526 16.3428 15.7525 16.3428C15.7525 16.3428 15.7519 16.3426 15.7506 16.3424C15.7481 16.3418 15.7432 16.3408 15.736 16.3391C15.7216 16.3359 15.698 16.3304 15.6659 16.3223C15.6016 16.3063 15.5037 16.2803 15.378 16.2424C15.1262 16.1664 14.7652 16.0431 14.342 15.8569C13.4923 15.4832 12.4116 14.8649 11.4572 13.8854L10.3828 14.9322C11.5084 16.0873 12.7677 16.8032 13.738 17.23C14.2248 17.4441 14.6437 17.5876 14.9445 17.6784C15.0951 17.7238 15.2165 17.7562 15.3026 17.7777C15.3456 17.7884 15.3799 17.7965 15.4046 17.8021C15.4169 17.8049 15.4269 17.807 15.4343 17.8087C15.4381 17.8095 15.4412 17.8101 15.4437 17.8106C15.4449 17.8109 15.446 17.8111 15.4469 17.8113C15.4474 17.8114 15.4478 17.8115 15.4482 17.8116C15.4484 17.8116 15.4486 17.8117 15.4487 17.8117C15.449 17.8117 15.4492 17.8118 15.6 17.0771ZM11.4572 13.8854C10.5021 12.9053 9.89788 11.7938 9.53207 10.9178C9.34995 10.4817 9.22922 10.1095 9.15472 9.8495C9.11752 9.71969 9.09199 9.61838 9.07618 9.5517C9.06828 9.51837 9.06283 9.49375 9.05957 9.4786C9.05794 9.47102 9.05686 9.46582 9.0563 9.46308C9.05602 9.46171 9.05587 9.46096 9.05584 9.46084C9.05583 9.46078 9.05585 9.46088 9.0559 9.46114C9.05593 9.46126 9.05596 9.46143 9.056 9.46164C9.05602 9.46174 9.05606 9.46193 9.05607 9.46198C9.05611 9.46218 9.05615 9.46238 8.31999 9.60584C7.58384 9.74931 7.58389 9.74953 7.58393 9.74977C7.58395 9.74986 7.584 9.75011 7.58404 9.75029C7.58411 9.75066 7.58419 9.75108 7.58428 9.75153C7.58446 9.75243 7.58467 9.7535 7.58492 9.75473C7.58541 9.75719 7.58603 9.7603 7.5868 9.76405C7.58834 9.77154 7.59043 9.78158 7.59312 9.79407C7.59849 9.81904 7.60624 9.85383 7.61662 9.89764C7.63738 9.98522 7.66872 10.1091 7.71277 10.2627C7.80077 10.5698 7.94004 10.998 8.14792 11.4958C8.56211 12.4877 9.25788 13.7777 10.3828 14.9322L11.4572 13.8854ZM8.6624 10.2731L9.03058 10.0842L8.34577 8.74964L7.97759 8.93857L8.6624 10.2731ZM10.388 6.44248L9.5418 4.2714L8.1442 4.81613L8.9904 6.98721L10.388 6.44248ZM20.8173 15.8465L18.7018 14.9781L18.1322 16.3657L20.2477 17.2342L20.8173 15.8465ZM15.1098 16.3708L14.9258 16.7486L16.2742 17.4056L16.4583 17.0277L15.1098 16.3708ZM18.7018 14.9781C17.3212 14.4114 15.7621 15.0321 15.1098 16.3708L16.4583 17.0277C16.7737 16.3804 17.5039 16.1079 18.1322 16.3657L18.7018 14.9781ZM9.03058 10.0842C10.3495 9.40742 10.9256 7.8218 10.388 6.44248L8.9904 6.98721C9.25633 7.66949 8.96201 8.43342 8.34577 8.74964L9.03058 10.0842ZM6.91177 3.9519C7.44395 3.9519 7.93718 4.28499 8.1442 4.81613L9.5418 4.2714C9.11706 3.18167 8.08063 2.4519 6.91177 2.4519V3.9519ZM22.59 18.5223C22.59 17.3543 21.8967 16.2896 20.8173 15.8465L20.2477 17.2342C20.7477 17.4394 21.09 17.9446 21.09 18.5223H22.59ZM19.76 21.6637C11.0024 21.6637 3.87 14.3723 3.87 5.33655H2.37C2.37 15.1638 10.1375 23.1637 19.76 23.1637V21.6637ZM19.76 23.1637C21.3412 23.1637 22.59 21.8538 22.59 20.2791H21.09C21.09 21.0623 20.4763 21.6637 19.76 21.6637V23.1637ZM3.87 5.33655C3.87 4.55338 4.48367 3.9519 5.2 3.9519V2.4519C3.61881 2.4519 2.37 3.76186 2.37 5.33655H3.87ZM18.43 11.7405C18.43 11.084 18.304 10.4335 18.0588 9.826L16.6678 10.3874C16.8408 10.8158 16.93 11.2757 16.93 11.7405H18.43ZM18.0588 9.826C17.8136 9.21845 17.4537 8.66517 16.9987 8.19824L15.9244 9.24506C16.242 9.571 16.4949 9.95901 16.6678 10.3874L18.0588 9.826ZM16.9987 8.19824C16.5437 7.73126 16.0025 7.35977 15.4054 7.10595L14.8185 8.4864C15.2309 8.66169 15.6068 8.91915 15.9244 9.24506L16.9987 8.19824ZM15.4054 7.10595C14.8082 6.85212 14.1675 6.7212 13.52 6.7212V8.2212C13.9651 8.2212 14.4063 8.31114 14.8185 8.4864L15.4054 7.10595ZM22.59 11.7405C22.59 10.5234 22.3564 9.31771 21.9022 8.19221L20.5112 8.75362C20.8932 9.70002 21.09 10.715 21.09 11.7405H22.59ZM21.9022 8.19221C21.4479 7.06668 20.7816 6.04276 19.9403 5.17939L18.866 6.22621C19.5699 6.9486 20.1292 7.80725 20.5112 8.75362L21.9022 8.19221ZM19.9403 5.17939C19.099 4.31598 18.0991 3.63001 16.9973 3.16164L16.4105 4.54209C17.3276 4.93193 18.1621 5.50386 18.866 6.22621L19.9403 5.17939ZM16.9973 3.16164C15.8955 2.69325 14.7138 2.4519 13.52 2.4519V3.9519C14.5114 3.9519 15.4935 4.15227 16.4105 4.54209L16.9973 3.16164Z" fill="white"/>
</svg>
