<svg width="16" height="17" viewBox="0 0 16 17" fill="none" xmlns="http://www.w3.org/2000/svg">
<path d="M12.64 6.60104L11.36 6.60104C10.653 6.60104 10.08 6.01291 10.08 5.28741V3.97378M13.92 2.66016L10.72 5.94423M13.92 12.0881V13.1692C13.92 13.8947 13.3469 14.4828 12.64 14.4828C6.98457 14.4828 2.39996 9.77776 2.39996 3.97379C2.39996 3.24829 2.97304 2.66016 3.67996 2.66016H4.73336C5.25676 2.66016 5.72743 2.98719 5.92181 3.48592L6.44255 4.82197C6.68979 5.45631 6.42197 6.17924 5.82653 6.48478L5.59996 6.60104C5.59996 6.60104 5.91996 8.24308 7.19996 9.55671C8.47996 10.8703 10.08 11.1987 10.08 11.1987L10.1932 10.9662C10.491 10.3551 11.1954 10.0803 11.8135 10.334L13.1153 10.8684C13.6013 11.0679 13.92 11.551 13.92 12.0881Z" stroke="#139C6F" stroke-width="1.2" stroke-linecap="round" stroke-linejoin="round"/>
</svg>
