<svg width="24" height="24" viewBox="0 0 24 24" fill="none" xmlns="http://www.w3.org/2000/svg">
<path d="M20.4801 18.7191V17.0975C20.4801 16.2918 20.0021 15.5672 19.2731 15.268L17.3204 14.4664C16.3932 14.0858 15.3366 14.498 14.89 15.4147L14.7201 15.7634C14.7201 15.7634 12.3201 15.2708 10.4001 13.3004C8.48007 11.33 8.00007 8.8669 8.00007 8.8669L8.33993 8.6925C9.23308 8.2342 9.63481 7.14979 9.26395 6.19828L8.48285 4.19421C8.19127 3.44611 7.48527 2.95557 6.70017 2.95557H5.12007C4.05969 2.95557 3.20007 3.83776 3.20007 4.92601C3.20007 13.632 10.077 20.6896 18.5601 20.6896C19.6205 20.6896 20.4801 19.8074 20.4801 18.7191Z" stroke="white" stroke-width="1.5" stroke-linejoin="round"/>
<path d="M17.6001 3.94067V9.852M20.4801 6.89634L14.7201 6.89634" stroke="white" stroke-width="1.5" stroke-linecap="round" stroke-linejoin="round"/>
</svg>
