<svg width="24" height="24" viewBox="0 0 24 24" fill="none" xmlns="http://www.w3.org/2000/svg">
<path d="M20.16 18.7191V17.0975C20.16 16.2918 19.682 15.5672 18.9531 15.268L17.0003 14.4664C16.0732 14.0858 15.0165 14.498 14.5699 15.4147L14.4 15.7634C14.4 15.7634 12 15.2708 10.08 13.3004C8.16001 11.33 7.68001 8.8669 7.68001 8.8669L8.01986 8.6925C8.91301 8.2342 9.31475 7.14979 8.94389 6.19828L8.16278 4.19421C7.8712 3.44611 7.1652 2.95557 6.3801 2.95557H4.8C3.73962 2.95557 2.88 3.83776 2.88 4.92601C2.88 13.632 9.75691 20.6896 18.24 20.6896C19.3004 20.6896 20.16 19.8074 20.16 18.7191Z" stroke="#925FE2" stroke-width="1.5" stroke-linejoin="round"/>
</svg>
