<svg width="24" height="25" viewBox="0 0 24 25" fill="none" xmlns="http://www.w3.org/2000/svg">
<path d="M20.68 19.6847V18.0631C20.68 17.2574 20.202 16.5328 19.4731 16.2336L17.5203 15.4319C16.5932 15.0513 15.5365 15.4636 15.09 16.3802L14.92 16.729C14.92 16.729 12.52 16.2364 10.6 14.266C8.68002 12.2955 8.20002 9.83247 8.20002 9.83247L8.53988 9.65808C9.43303 9.19977 9.83476 8.11537 9.4639 7.16386L8.6828 5.15978C8.39122 4.41169 7.68522 3.92114 6.90012 3.92114H5.32002C4.25964 3.92114 3.40002 4.80334 3.40002 5.89159C3.40002 14.5976 10.2769 21.6551 18.76 21.6551C19.8204 21.6551 20.68 20.7729 20.68 19.6847Z" stroke="white" stroke-width="1.5" stroke-linejoin="round"/>
</svg>
