<svg width="24" height="25" viewBox="0 0 24 25" fill="none" xmlns="http://www.w3.org/2000/svg">
<path d="M14.92 16.6895L14.7692 17.4242C15.1047 17.493 15.4443 17.3259 15.5943 17.018L14.92 16.6895ZM8.20002 9.79292L7.85762 9.12564C7.56052 9.2781 7.4 9.60861 7.46387 9.93638L8.20002 9.79292ZM8.53988 9.61853L8.88228 10.2858V10.2858L8.53988 9.61853ZM9.46391 7.12431L10.1627 6.85194V6.85194L9.46391 7.12431ZM8.6828 5.12023L7.984 5.39259L8.6828 5.12023ZM19.4731 16.194L19.1883 16.8878L19.4731 16.194ZM17.5203 15.3924L17.8051 14.6986L17.8051 14.6986L17.5203 15.3924ZM15.09 16.3407L15.7642 16.6692L15.7642 16.6692L15.09 16.3407ZM16.09 11.7634C16.09 12.1776 16.4258 12.5134 16.84 12.5134C17.2542 12.5134 17.59 12.1776 17.59 11.7634H16.09ZM16.5477 10.2553L17.2432 9.97455L16.5477 10.2553ZM14.4695 8.12246L14.7629 7.43224L14.4695 8.12246ZM13 7.07248C12.5858 7.07248 12.25 7.40826 12.25 7.82248C12.25 8.23669 12.5858 8.57248 13 8.57248V7.07248ZM19.93 11.7634C19.93 12.1776 20.2658 12.5134 20.68 12.5134C21.0942 12.5134 21.43 12.1776 21.43 11.7634H19.93ZM20.0954 8.74714L20.7909 8.46643L20.0954 8.74714ZM15.939 4.48156L16.2324 3.79133V3.79133L15.939 4.48156ZM13 3.13159C12.5858 3.13159 12.25 3.46738 12.25 3.88159C12.25 4.29581 12.5858 4.63159 13 4.63159V3.13159ZM19.93 18.0235V19.6451H21.43V18.0235H19.93ZM5.32002 4.63159H6.90012V3.13159H5.32002V4.63159ZM14.92 16.6895C15.0708 15.9548 15.071 15.9548 15.0712 15.9549C15.0713 15.9549 15.0715 15.9549 15.0716 15.955C15.0718 15.955 15.072 15.955 15.0722 15.9551C15.0725 15.9551 15.0727 15.9552 15.0727 15.9552C15.0728 15.9552 15.0723 15.9551 15.0712 15.9549C15.0691 15.9544 15.0648 15.9535 15.0583 15.952C15.0454 15.9491 15.024 15.9441 14.9948 15.9368C14.9363 15.9222 14.8468 15.8984 14.7318 15.8637C14.5013 15.7941 14.1702 15.6811 13.782 15.5103C13.0023 15.1674 12.0116 14.6004 11.1372 13.703L10.0629 14.7498C11.1084 15.8229 12.2777 16.4874 13.1781 16.8834C13.6298 17.0821 14.0188 17.2153 14.2983 17.2997C14.4382 17.342 14.5512 17.3721 14.6315 17.3921C14.6717 17.4022 14.7037 17.4097 14.7269 17.4149C14.7385 17.4175 14.7478 17.4196 14.7549 17.4211C14.7585 17.4219 14.7614 17.4225 14.7638 17.423C14.765 17.4233 14.7661 17.4235 14.767 17.4237C14.7674 17.4238 14.7678 17.4239 14.7682 17.4239C14.7684 17.424 14.7687 17.424 14.7687 17.4241C14.769 17.4241 14.7692 17.4242 14.92 16.6895ZM11.1372 13.703C10.2621 12.805 9.70791 11.7859 9.3721 10.9817C9.20498 10.5816 9.09425 10.2401 9.026 10.0019C8.99192 9.88303 8.96858 9.79038 8.95418 9.72963C8.94699 9.69928 8.94204 9.67694 8.93911 9.66333C8.93765 9.65652 8.93669 9.65191 8.93621 9.64956C8.93597 9.64839 8.93585 9.64779 8.93584 9.64777C8.93584 9.64776 8.93587 9.64789 8.93592 9.64818C8.93595 9.64832 8.93599 9.64849 8.93603 9.64871C8.93605 9.64881 8.93609 9.649 8.9361 9.64906C8.93614 9.64925 8.93618 9.64946 8.20002 9.79292C7.46387 9.93638 7.46392 9.93661 7.46396 9.93684C7.46398 9.93693 7.46403 9.93718 7.46406 9.93736C7.46414 9.93773 7.46421 9.93813 7.4643 9.93857C7.46448 9.93945 7.46468 9.94048 7.46492 9.94166C7.46539 9.94402 7.46599 9.94698 7.46671 9.95053C7.46817 9.95763 7.47014 9.96708 7.47266 9.9788C7.4777 10.0022 7.48494 10.0347 7.49462 10.0756C7.51397 10.1572 7.54313 10.2724 7.58405 10.4152C7.6658 10.7004 7.79507 11.0979 7.98795 11.5598C8.37214 12.4798 9.01791 13.6774 10.0629 14.7498L11.1372 13.703ZM8.54243 10.4602L8.88228 10.2858L8.19748 8.95125L7.85762 9.12564L8.54243 10.4602ZM10.1627 6.85194L9.38159 4.84787L7.984 5.39259L8.76511 7.39667L10.1627 6.85194ZM19.7579 15.5002L17.8051 14.6986L17.2355 16.0862L19.1883 16.8878L19.7579 15.5002ZM14.4157 16.0122L14.2458 16.361L15.5943 17.018L15.7642 16.6692L14.4157 16.0122ZM17.8051 14.6986C16.5018 14.1635 15.0307 14.7499 14.4157 16.0122L15.7642 16.6692C16.0423 16.0983 16.6845 15.86 17.2355 16.0862L17.8051 14.6986ZM8.88228 10.2858C10.1268 9.64722 10.6694 8.15197 10.1627 6.85194L8.76511 7.39667C9.00013 7.99966 8.73929 8.67323 8.19748 8.95125L8.88228 10.2858ZM6.90012 4.63159C7.36688 4.63159 7.80128 4.9238 7.984 5.39259L9.38159 4.84787C8.98116 3.82047 8.00356 3.13159 6.90012 3.13159V4.63159ZM21.43 18.0235C21.43 16.9226 20.7765 15.9184 19.7579 15.5002L19.1883 16.8878C19.6275 17.0681 19.93 17.513 19.93 18.0235H21.43ZM18.76 20.8656C10.7094 20.8656 4.15002 14.1622 4.15002 5.85203H2.65002C2.65002 14.9538 9.8445 22.3656 18.76 22.3656V20.8656ZM18.76 22.3656C20.2528 22.3656 21.43 21.1291 21.43 19.6451H19.93C19.93 20.3376 19.388 20.8656 18.76 20.8656V22.3656ZM4.15002 5.85203C4.15002 5.15955 4.69207 4.63159 5.32002 4.63159V3.13159C3.82721 3.13159 2.65002 4.36803 2.65002 5.85203H4.15002ZM17.59 11.7634C17.59 11.15 17.4723 10.5422 17.2432 9.97455L15.8522 10.536C16.0091 10.9245 16.09 11.3417 16.09 11.7634H17.59ZM17.2432 9.97455C17.0141 9.40684 16.6777 8.88976 16.2525 8.45333L15.1782 9.50015C15.466 9.7956 15.6954 10.1474 15.8522 10.536L17.2432 9.97455ZM16.2525 8.45333C15.8272 8.01685 15.3212 7.66955 14.7629 7.43224L14.1761 8.81269C14.5496 8.97147 14.8903 9.20473 15.1782 9.50015L16.2525 8.45333ZM14.7629 7.43224C14.2046 7.1949 13.6055 7.07248 13 7.07248V8.57248C13.4031 8.57248 13.8026 8.65392 14.1761 8.81269L14.7629 7.43224ZM21.43 11.7634C21.43 10.6325 21.213 9.51224 20.7909 8.46643L19.3999 9.02785C19.7497 9.89456 19.93 10.8241 19.93 11.7634H21.43ZM20.7909 8.46643C20.3688 7.4206 19.7496 6.46908 18.9678 5.6667L17.8934 6.71352C18.5379 7.37492 19.0501 8.16116 19.3999 9.02785L20.7909 8.46643ZM18.9678 5.6667C18.1859 4.86428 17.2566 4.2267 16.2324 3.79133L15.6456 5.17178C16.485 5.52861 17.249 6.05216 17.8934 6.71352L18.9678 5.6667ZM16.2324 3.79133C15.2082 3.35595 14.1098 3.13159 13 3.13159V4.63159C13.9073 4.63159 14.8063 4.81497 15.6456 5.17178L16.2324 3.79133Z" fill="#989E9C"/>
</svg>
