<svg width="26" height="26" viewBox="0 0 26 26" fill="none" xmlns="http://www.w3.org/2000/svg">
<path fill-rule="evenodd" clip-rule="evenodd" d="M12.5283 11.19C11.714 11.19 10.9497 11.4942 10.3609 12.066C9.7846 12.6257 9.4714 13.3679 9.48392 14.1344V14.1465C9.48392 14.9374 9.79713 15.6796 10.3734 16.2392C10.9497 16.7989 11.714 17.1031 12.5283 17.1031C14.2071 17.1031 15.5602 15.7769 15.5727 14.1465C15.5727 13.3557 15.2595 12.6135 14.6832 12.0539C14.1069 11.4942 13.3426 11.19 12.5283 11.19ZM19.5567 11.2752C18.9303 11.2752 18.4291 10.7885 18.4291 10.1802C18.4291 9.57184 18.9303 9.073 19.5567 9.073C20.1831 9.073 20.6968 9.57184 20.6968 10.1802C20.6968 10.7885 20.1831 11.2752 19.5567 11.2752ZM15.9986 17.5289C15.1091 18.3928 13.8814 18.9281 12.5283 18.9281C11.2128 18.9281 9.98506 18.4293 9.04543 17.5289C8.11834 16.6164 7.60468 15.4241 7.60468 14.1465C7.59215 12.8812 8.10581 11.6889 9.03291 10.7764C9.97253 9.86384 11.2128 9.365 12.5283 9.365C13.8438 9.365 15.0841 9.86384 16.0112 10.7642C16.9383 11.6767 17.4519 12.8812 17.4519 14.1465C17.4394 15.4727 16.8882 16.6651 15.9986 17.5289ZM19.5943 5.65414C19.4815 5.65414 19.3938 5.5933 19.3437 5.50814L19.2184 5.24047C18.8802 4.54696 18.4918 3.74395 18.2537 3.28162C17.6774 2.18661 16.6877 1.57827 15.4725 1.5661H9.57162C8.35638 1.57827 7.37917 2.18661 6.80287 3.28162C6.5523 3.76829 6.12634 4.6443 5.77555 5.36213L5.70038 5.50814C5.66279 5.60547 5.56257 5.65414 5.46234 5.65414C2.44302 5.65414 0 8.03883 0 10.9589V18.1859C0 21.1059 2.44302 23.4906 5.46234 23.4906H19.5943C22.6011 23.4906 25.0566 21.1059 25.0566 18.1859V10.9589C25.0566 8.03883 22.6011 5.65414 19.5943 5.65414Z" fill="white"/>
</svg>
