<svg width="24" height="24" viewBox="0 0 24 24" fill="none" xmlns="http://www.w3.org/2000/svg">
<path d="M7.08015 5.91123V6.66123C7.33408 6.66123 7.57077 6.53274 7.7091 6.3198L7.08015 5.91123ZM8.43017 3.833L7.80122 3.42444V3.42444L8.43017 3.833ZM15.3301 3.833L15.9591 3.42444V3.42444L15.3301 3.833ZM16.6802 5.91123L16.0512 6.3198C16.1895 6.53274 16.4262 6.66123 16.6802 6.66123V5.91123ZM14.0102 13.3004C14.0102 14.537 13.0383 15.5061 11.8802 15.5061V17.0061C13.9032 17.0061 15.5102 15.3285 15.5102 13.3004H14.0102ZM11.8802 15.5061C10.722 15.5061 9.75015 14.537 9.75015 13.3004H8.25015C8.25015 15.3285 9.85714 17.0061 11.8802 17.0061V15.5061ZM9.75015 13.3004C9.75015 12.0638 10.722 11.0947 11.8802 11.0947V9.59473C9.85714 9.59473 8.25015 11.2723 8.25015 13.3004H9.75015ZM11.8802 11.0947C13.0383 11.0947 14.0102 12.0638 14.0102 13.3004H15.5102C15.5102 11.2723 13.9032 9.59473 11.8802 9.59473V11.0947ZM7.7091 6.3198L9.05912 4.24157L7.80122 3.42444L6.4512 5.50267L7.7091 6.3198ZM10.0277 3.70557H13.7326V2.20557H10.0277V3.70557ZM14.7012 4.24157L16.0512 6.3198L17.3091 5.50267L15.9591 3.42444L14.7012 4.24157ZM13.7326 3.70557C14.1151 3.70557 14.4804 3.90163 14.7012 4.24157L15.9591 3.42444C15.4677 2.66803 14.6341 2.20557 13.7326 2.20557V3.70557ZM9.05912 4.24157C9.27994 3.90163 9.64524 3.70557 10.0277 3.70557V2.20557C9.12625 2.20557 8.29259 2.66803 7.80122 3.42444L9.05912 4.24157ZM20.7302 9.85212V16.7487H22.2302V9.85212H20.7302ZM17.6402 19.9396H6.12015V21.4396H17.6402V19.9396ZM3.03015 16.7487V9.85212H1.53015V16.7487H3.03015ZM6.12015 19.9396C4.43181 19.9396 3.03015 18.5294 3.03015 16.7487H1.53015C1.53015 19.3209 3.56695 21.4396 6.12015 21.4396V19.9396ZM20.7302 16.7487C20.7302 18.5294 19.3285 19.9396 17.6402 19.9396V21.4396C20.1934 21.4396 22.2302 19.3209 22.2302 16.7487H20.7302ZM17.6402 6.66123C19.3285 6.66123 20.7302 8.07139 20.7302 9.85212H22.2302C22.2302 7.27987 20.1934 5.16123 17.6402 5.16123V6.66123ZM6.12015 5.16123C3.56695 5.16123 1.53015 7.27987 1.53015 9.85212H3.03015C3.03015 8.07139 4.43181 6.66123 6.12015 6.66123V5.16123ZM6.12015 6.66123H7.08015V5.16123H6.12015V6.66123ZM17.6402 5.16123H16.6802V6.66123H17.6402V5.16123Z" fill="#000E08"/>
<ellipse cx="11.8802" cy="5.91125" rx="0.96" ry="0.985222" fill="#000E08"/>
</svg>
