<svg width="23" height="24" viewBox="0 0 23 24" fill="none" xmlns="http://www.w3.org/2000/svg">
<path d="M6.78573 6.21177V6.96177C7.04459 6.96177 7.28515 6.82828 7.42213 6.60863L6.78573 6.21177ZM8.08175 4.13354L7.44536 3.73668V3.73668L8.08175 4.13354ZM14.7057 4.13354L15.3421 3.73668L14.7057 4.13354ZM16.0017 6.21177L15.3653 6.60863C15.5023 6.82828 15.7429 6.96177 16.0017 6.96177V6.21177ZM13.4085 13.6009C13.4085 14.867 12.4601 15.8066 11.3937 15.8066V17.3066C13.3813 17.3066 14.9085 15.5996 14.9085 13.6009H13.4085ZM11.3937 15.8066C10.3274 15.8066 9.37893 14.867 9.37893 13.6009H7.87893C7.87893 15.5996 9.40619 17.3066 11.3937 17.3066V15.8066ZM9.37893 13.6009C9.37893 12.3348 10.3274 11.3953 11.3937 11.3953V9.89527C9.40619 9.89527 7.87893 11.6023 7.87893 13.6009H9.37893ZM11.3937 11.3953C12.4601 11.3953 13.4085 12.3348 13.4085 13.6009H14.9085C14.9085 11.6023 13.3813 9.89527 11.3937 9.89527V11.3953ZM7.42213 6.60863L8.71814 4.53041L7.44536 3.73668L6.14934 5.8149L7.42213 6.60863ZM9.61539 4.0061H13.1721V2.5061H9.61539V4.0061ZM14.0693 4.53041L15.3653 6.60863L16.6381 5.8149L15.3421 3.73668L14.0693 4.53041ZM13.1721 4.0061C13.5147 4.0061 13.8564 4.18904 14.0693 4.53041L15.3421 3.73668C14.8713 2.98169 14.062 2.5061 13.1721 2.5061V4.0061ZM8.71814 4.53041C8.93103 4.18904 9.27274 4.0061 9.61539 4.0061V2.5061C8.72547 2.5061 7.91618 2.98169 7.44536 3.73668L8.71814 4.53041ZM19.8597 10.1527V17.0492H21.3597V10.1527H19.8597ZM16.9233 20.2401H5.86413V21.7401H16.9233V20.2401ZM2.92773 17.0492V10.1527H1.42773V17.0492H2.92773ZM5.86413 20.2401C4.28878 20.2401 2.92773 18.8594 2.92773 17.0492H1.42773C1.42773 19.592 3.36761 21.7401 5.86413 21.7401V20.2401ZM19.8597 17.0492C19.8597 18.8594 18.4987 20.2401 16.9233 20.2401V21.7401C19.4199 21.7401 21.3597 19.592 21.3597 17.0492H19.8597ZM16.9233 6.96177C18.4987 6.96177 19.8597 8.34243 19.8597 10.1527H21.3597C21.3597 7.6099 19.4199 5.46177 16.9233 5.46177V6.96177ZM5.86413 5.46177C3.36761 5.46177 1.42773 7.6099 1.42773 10.1527H2.92773C2.92773 8.34243 4.28878 6.96177 5.86413 6.96177V5.46177ZM5.86413 6.96177H6.78573V5.46177H5.86413V6.96177ZM16.9233 5.46177H16.0017V6.96177H16.9233V5.46177Z" fill="#797C7B"/>
<ellipse cx="11.3938" cy="6.21178" rx="0.9216" ry="0.985222" fill="#797C7B"/>
</svg>
