<svg width="23" height="25" viewBox="0 0 23 25" fill="none" xmlns="http://www.w3.org/2000/svg">
<path fill-rule="evenodd" clip-rule="evenodd" d="M19.688 20.0071C19.688 20.8355 19.0164 21.5071 18.188 21.5071L17.5016 21.5071C16.6732 21.5071 16.0016 20.8355 16.0016 20.0071L16.0016 5.27309C16.0016 4.44466 16.6732 3.77309 17.5016 3.77309L18.188 3.77309C19.0164 3.77309 19.688 4.44466 19.688 5.27309L19.688 20.0071Z" stroke="#797C7B" stroke-width="1.5" stroke-linecap="round" stroke-linejoin="round"/>
<path fill-rule="evenodd" clip-rule="evenodd" d="M13.2368 20.0073C13.2368 20.8358 12.5652 21.5073 11.7368 21.5073L11.0504 21.5073C10.222 21.5073 9.55042 20.8358 9.55042 20.0073L9.55042 10.8733C9.55042 10.0449 10.222 9.37333 11.0504 9.37333L11.7368 9.37333C12.5652 9.37333 13.2368 10.0449 13.2368 10.8733L13.2368 20.0073Z" stroke="#797C7B" stroke-width="1.5" stroke-linecap="round" stroke-linejoin="round"/>
<path fill-rule="evenodd" clip-rule="evenodd" d="M6.78564 20.0073C6.78564 20.8358 6.11407 21.5073 5.28564 21.5073L4.59924 21.5073C3.77082 21.5073 3.09925 20.8358 3.09925 20.0073L3.09925 16.4733C3.09925 15.6449 3.77082 14.9733 4.59924 14.9733L5.28565 14.9733C6.11407 14.9733 6.78564 15.6449 6.78564 16.4733L6.78564 20.0073Z" stroke="#797C7B" stroke-width="1.5" stroke-linecap="round" stroke-linejoin="round"/>
</svg>
