<svg width="21" height="21" viewBox="0 0 21 21" fill="none" xmlns="http://www.w3.org/2000/svg">
<path d="M15.78 0.509277H5.78003C3.02003 0.509277 0.780029 2.73928 0.780029 5.48928V11.4693V12.4693C0.780029 15.2193 3.02003 17.4493 5.78003 17.4493H7.28003C7.55003 17.4493 7.91003 17.6293 8.08003 17.8493L9.58003 19.8393C10.24 20.7193 11.32 20.7193 11.98 19.8393L13.48 17.8493C13.67 17.5993 13.97 17.4493 14.28 17.4493H15.78C18.54 17.4493 20.78 15.2193 20.78 12.4693V5.48928C20.78 2.73928 18.54 0.509277 15.78 0.509277ZM6.78003 10.5093C6.22003 10.5093 5.78003 10.0593 5.78003 9.50928C5.78003 8.95928 6.23003 8.50928 6.78003 8.50928C7.33003 8.50928 7.78003 8.95928 7.78003 9.50928C7.78003 10.0593 7.34003 10.5093 6.78003 10.5093ZM10.78 10.5093C10.22 10.5093 9.78003 10.0593 9.78003 9.50928C9.78003 8.95928 10.23 8.50928 10.78 8.50928C11.33 8.50928 11.78 8.95928 11.78 9.50928C11.78 10.0593 11.34 10.5093 10.78 10.5093ZM14.78 10.5093C14.22 10.5093 13.78 10.0593 13.78 9.50928C13.78 8.95928 14.23 8.50928 14.78 8.50928C15.33 8.50928 15.78 8.95928 15.78 9.50928C15.78 10.0593 15.34 10.5093 14.78 10.5093Z" fill="white"/>
</svg>
