<svg width="24" height="19" viewBox="0 0 24 19" fill="none" xmlns="http://www.w3.org/2000/svg">
<path fill-rule="evenodd" clip-rule="evenodd" d="M6.20986 2.36864C6.11686 2.46176 6.01698 2.56381 5.88361 2.7015C5.88361 2.7015 3.68631 4.95805 3.67897 4.96456C3.6108 5.03092 3.55407 5.08767 3.49526 5.14767C3.46824 5.1754 3.4442 5.19979 3.39294 5.25153C3.34887 5.29602 3.32847 5.31668 3.30307 5.34261L1.31635 7.38382C1.27371 7.42922 1.23713 7.46744 1.19008 7.51594L1.13652 7.5712C1.07586 7.63357 1.02787 7.68432 0.960045 7.75692C0.804463 7.91448 0.6467 8.09265 0.498147 8.27951C0.360117 8.43055 0.248683 8.60515 0.168901 8.79553L0.147821 8.85313C0.00411191 9.30971 0.00411191 9.80113 0.147821 10.2577L0.169828 10.3175C0.250216 10.5074 0.362242 10.6814 0.500795 10.8317C0.648721 11.0182 0.806369 11.1964 0.97305 11.3655C1.00811 11.4043 1.05978 11.4585 1.12879 11.5293C1.17646 11.5782 1.19697 11.5993 1.22252 11.6257C1.25553 11.6599 1.28405 11.6898 1.31054 11.7179L3.30249 13.766C3.40119 13.8673 3.44537 13.9123 3.52441 13.9914C3.58938 14.0573 3.62784 14.0957 3.69904 14.1631L5.88557 16.4104C6.04946 16.5786 6.12298 16.6537 6.21565 16.7471C6.33611 16.8708 6.41551 16.9507 6.53955 17.0751C6.58628 17.1257 6.60379 17.1443 6.62774 17.1672C6.90767 17.4559 7.2491 17.711 7.62298 17.9068C7.99722 18.1002 8.394 18.2346 8.80351 18.3072C9.18719 18.372 9.57006 18.4067 9.95383 18.4116C10.1166 18.4153 10.2799 18.4176 10.4412 18.4182L10.8255 18.4182H17.9733C18.1217 18.4182 18.2687 18.4161 18.4726 18.4115C18.8541 18.4067 19.2408 18.3719 19.6233 18.3074C20.041 18.2334 20.4406 18.0978 20.8141 17.9041C21.1927 17.7075 21.5382 17.4505 21.8378 17.1426C22.1361 16.8353 22.3855 16.4828 22.5776 16.0973C22.7679 15.7087 22.8995 15.2979 22.9704 14.874C23.0337 14.4766 23.0674 14.08 23.0721 13.6825C23.075 13.5849 23.0763 13.4989 23.0785 13.3075L23.08 13.185L23.0801 12.5809V5.89385L23.079 5.78806C23.0777 5.67009 23.0771 5.61856 23.076 5.55244C23.075 5.49045 23.0737 5.43357 23.0721 5.37878C23.0678 4.99662 23.0345 4.60356 22.9725 4.21473C22.9013 3.78909 22.7707 3.38176 22.5843 3.0006C22.3912 2.61332 22.1435 2.26348 21.8477 1.95905C21.5518 1.65324 21.209 1.39736 20.8332 1.20209C20.4623 1.0096 20.0659 0.874821 19.6567 0.802055C19.2712 0.737713 18.8883 0.703388 18.5045 0.69823C18.3307 0.693911 18.1703 0.691606 18.0161 0.691606C17.8605 0.689968 17.7318 0.689636 17.4428 0.689636H11.0152C10.7283 0.689636 10.5987 0.68997 10.4361 0.691639C10.2886 0.691606 10.1288 0.693896 9.94544 0.698358C9.56894 0.703432 9.18663 0.737763 8.80836 0.800942C8.39233 0.874942 7.99558 1.00958 7.62448 1.2016C7.24781 1.39854 6.9062 1.65398 6.61 1.95964C6.59627 1.97349 6.58623 1.98434 6.50237 2.07621C6.39833 2.17745 6.30266 2.27307 6.20986 2.36864ZM3.72224 4.92733L3.72463 4.92542C3.72175 4.92765 3.71975 4.92919 3.71727 4.9313L3.72224 4.92733ZM6.79087 15.482L4.58094 13.2107C4.58094 13.2107 4.53686 13.1695 4.53228 13.1655C4.49817 13.1321 4.46884 13.1027 4.39558 13.0284C4.34269 12.9757 4.30154 12.9338 4.20787 12.8377L2.2239 10.798C2.20063 10.7731 2.16822 10.7391 2.13146 10.7011C2.10415 10.6728 2.08209 10.6501 2.03377 10.6005C1.97301 10.5382 1.92939 10.4925 1.88873 10.4481C1.73337 10.29 1.60186 10.1406 1.47883 9.98408L1.43667 9.93556C1.40412 9.90163 1.37686 9.86283 1.3558 9.82054C1.30776 9.64678 1.30788 9.46268 1.35617 9.28898C1.37725 9.24592 1.40466 9.20638 1.43748 9.17176L1.47624 9.12694C1.59995 8.97006 1.73202 8.82032 1.87186 8.67842C1.94678 8.59857 1.99009 8.55277 2.02284 8.5187L2.09707 8.44262C2.14912 8.38896 2.19076 8.34546 2.23072 8.30274L4.20716 6.27226C4.22885 6.25011 4.24723 6.23151 4.29917 6.17907C4.34407 6.13374 4.37007 6.10737 4.39888 6.0778C4.44346 6.03233 4.48731 5.98835 4.53037 5.94598C4.53983 5.93786 4.55085 5.92738 4.58222 5.89753L6.79021 3.62857C6.92055 3.49402 7.0164 3.39609 7.11023 3.30205C7.20045 3.20922 7.28753 3.12218 7.37963 3.03254C7.40004 3.01299 7.41224 2.9999 7.46861 2.93852L7.51317 2.89021C7.71811 2.67877 7.94952 2.50573 8.20306 2.37317C8.45908 2.2407 8.73534 2.14695 9.02048 2.09621C9.32982 2.04458 9.64907 2.01591 9.96907 2.01157C10.1497 2.0072 10.2998 2.00506 10.4425 2.00506C10.6058 2.00341 10.7326 2.00309 11.0152 2.00309H17.4428C17.7275 2.00309 17.8534 2.00341 18.0097 2.00502C18.1591 2.00506 18.3095 2.00722 18.4807 2.01143C18.8084 2.01588 19.1283 2.04455 19.4448 2.09735C19.7225 2.14677 19.9979 2.2404 20.2553 2.37403C20.5087 2.50572 20.7402 2.67844 20.9405 2.88548C21.1433 3.09426 21.3125 3.33311 21.4428 3.59438C21.5704 3.85533 21.6613 4.13911 21.7103 4.43193C21.7611 4.75051 21.7889 5.07794 21.7926 5.40612C21.7943 5.46679 21.7954 5.51824 21.7964 5.57503C21.7974 5.63737 21.798 5.68705 21.7992 5.80219L21.8003 5.90173L21.8003 6.4826V13.1705L21.7988 13.292C21.7967 13.4756 21.7954 13.5564 21.7925 13.6553C21.7885 13.9986 21.7603 14.3296 21.7082 14.6569C21.6595 14.948 21.5675 15.2349 21.4361 15.5034C21.3065 15.7634 21.1356 16.0049 20.9316 16.2151C20.7286 16.4238 20.4938 16.5984 20.2368 16.7319C19.9766 16.8668 19.6981 16.9613 19.4107 17.0123C19.0968 17.0651 18.7742 17.0942 18.4508 17.0983C18.2493 17.1027 18.1105 17.1048 17.9733 17.1048H10.4437C10.2929 17.1042 10.1373 17.102 9.97597 17.0984C9.65044 17.0941 9.33168 17.0653 9.01639 17.0121C8.73627 16.9624 8.46005 16.8688 8.20165 16.7353C7.95075 16.6039 7.71881 16.4306 7.51747 16.2234C7.50542 16.2113 7.4887 16.1935 7.46756 16.1706L7.46485 16.1677C7.41452 16.1132 7.40317 16.1009 7.39126 16.0892L7.37689 16.0754C7.30373 16.0049 7.23224 15.9329 7.11659 15.8143C7.02349 15.7204 6.95175 15.6471 6.79087 15.482ZM11.3803 13.0295C11.3284 13.0823 11.2662 13.1254 11.196 13.1552C10.9815 13.2464 10.7346 13.196 10.5704 13.0275C10.4624 12.917 10.4017 12.7669 10.4017 12.6103C10.4017 12.4538 10.4624 12.3037 10.5704 12.1932V12.1945C10.6013 12.1628 10.6351 12.1353 10.6711 12.1121L13.1621 9.55246L10.5704 6.89568L10.5787 6.88718C10.5271 6.83383 10.485 6.76989 10.4559 6.69771C10.3671 6.47758 10.4162 6.2242 10.5804 6.05573C10.6881 5.94446 10.8347 5.88189 10.9875 5.88189C11.1404 5.88189 11.2869 5.94446 11.3947 6.05573H11.3921C11.4199 6.08428 11.4444 6.11527 11.4655 6.14812L13.9727 8.71953L16.4869 6.1361C16.5064 6.10725 16.5286 6.07978 16.5536 6.05409C16.7178 5.8856 16.9647 5.8352 17.1792 5.92637C17.3937 6.01755 17.5335 6.23235 17.5335 6.47062C17.5335 6.62907 17.4717 6.77714 17.3672 6.88538L17.3737 6.89207L14.7847 9.55232L17.2901 12.1219C17.321 12.1431 17.3499 12.1675 17.3766 12.1948L17.3753 12.1961C17.5394 12.3646 17.5886 12.618 17.4997 12.8381C17.4109 13.0582 17.2016 13.2017 16.9694 13.2017C16.815 13.2017 16.6707 13.1383 16.5653 13.031L16.5603 13.0361L13.9743 10.385L11.3905 13.04L11.3803 13.0295Z" fill="#925FE2"/>
</svg>
