<svg width="23" height="24" viewBox="0 0 23 24" fill="none" xmlns="http://www.w3.org/2000/svg">
<path d="M12.3154 2.02954V5.97043C12.3154 8.14692 13.9658 9.91131 16.0018 9.91131L19.6882 9.91131M3.09937 5.97043L3.09937 17.7931C3.09937 19.9696 4.74982 21.734 6.78576 21.734H16.0018C18.0377 21.734 19.6882 19.9696 19.6882 17.7931V11.5437C19.6882 10.4985 19.2998 9.49611 18.6084 8.75706L13.3951 3.1838C12.7037 2.44474 11.7661 2.02954 10.7884 2.02954L6.78576 2.02954C4.74982 2.02954 3.09937 3.79394 3.09937 5.97043Z" stroke="#797C7B" stroke-width="1.5" stroke-linejoin="round"/>
<path d="M5.77417 13.4894H7.23487C7.56427 13.4894 7.81537 13.5163 7.98817 13.5702C8.22037 13.6433 8.41927 13.7732 8.58487 13.9599C8.75047 14.1465 8.87647 14.3755 8.96287 14.6468C9.04927 14.9162 9.09247 15.2491 9.09247 15.6455C9.09247 15.9938 9.05197 16.294 8.97097 16.5461C8.87197 16.854 8.73067 17.1032 8.54707 17.2937C8.40847 17.438 8.22127 17.5505 7.98547 17.6314C7.80907 17.691 7.57327 17.7208 7.27807 17.7208H5.77417V13.4894ZM6.57337 14.2052V17.0079H7.17007C7.39327 17.0079 7.55437 16.9944 7.65337 16.9675C7.78297 16.9329 7.89007 16.8742 7.97467 16.7914C8.06107 16.7087 8.13127 16.573 8.18527 16.3844C8.23927 16.1939 8.26627 15.9351 8.26627 15.608C8.26627 15.2809 8.23927 15.0298 8.18527 14.8547C8.13127 14.6796 8.05567 14.5429 7.95847 14.4448C7.86127 14.3467 7.73797 14.2803 7.58857 14.2456C7.47697 14.2187 7.25827 14.2052 6.93247 14.2052H6.57337Z" fill="#797C7B"/>
<path d="M9.61087 15.6311C9.61087 15.2001 9.67117 14.8383 9.79177 14.5458C9.88177 14.3303 10.0042 14.1369 10.159 13.9657C10.3156 13.7944 10.4866 13.6674 10.672 13.5846C10.9186 13.473 11.203 13.4172 11.5252 13.4172C12.1084 13.4172 12.5746 13.6106 12.9238 13.9974C13.2748 14.3842 13.4503 14.922 13.4503 15.6109C13.4503 16.294 13.2766 16.829 12.9292 17.2157C12.5818 17.6006 12.1174 17.793 11.536 17.793C10.9474 17.793 10.4794 17.6015 10.132 17.2186C9.78457 16.8338 9.61087 16.3046 9.61087 15.6311ZM10.4344 15.6022C10.4344 16.0814 10.5379 16.4451 10.7449 16.6933C10.9519 16.9396 11.2147 17.0627 11.5333 17.0627C11.8519 17.0627 12.1129 16.9406 12.3163 16.6962C12.5215 16.4499 12.6241 16.0814 12.6241 15.5907C12.6241 15.1058 12.5242 14.744 12.3244 14.5054C12.1264 14.2668 11.8627 14.1475 11.5333 14.1475C11.2039 14.1475 10.9384 14.2687 10.7368 14.5112C10.5352 14.7517 10.4344 15.1154 10.4344 15.6022Z" fill="#797C7B"/>
<path d="M16.6093 16.1651L17.3842 16.4277C17.2654 16.8896 17.0674 17.233 16.7902 17.4582C16.5148 17.6814 16.1647 17.793 15.7399 17.793C15.2143 17.793 14.7823 17.6015 14.4439 17.2186C14.1055 16.8338 13.9363 16.3084 13.9363 15.6426C13.9363 14.9384 14.1064 14.3919 14.4466 14.0032C14.7868 13.6125 15.2341 13.4172 15.7885 13.4172C16.2727 13.4172 16.666 13.5702 16.9684 13.8762C17.1484 14.0571 17.2834 14.3168 17.3734 14.6555L16.5823 14.8575C16.5355 14.6382 16.4374 14.465 16.288 14.338C16.1404 14.211 15.9604 14.1475 15.748 14.1475C15.4546 14.1475 15.2161 14.2601 15.0325 14.4852C14.8507 14.7103 14.7598 15.075 14.7598 15.5791C14.7598 16.1141 14.8498 16.4951 15.0298 16.7222C15.2098 16.9492 15.4438 17.0627 15.7318 17.0627C15.9442 17.0627 16.1269 16.9906 16.2799 16.8463C16.4329 16.702 16.5427 16.4749 16.6093 16.1651Z" fill="#797C7B"/>
</svg>
