<svg width="24" height="24" viewBox="0 0 24 24" fill="none" xmlns="http://www.w3.org/2000/svg">
<path d="M6.72001 17.734L6.72001 9.85223C6.72001 7.67574 8.43923 5.91135 10.56 5.91135L16.32 5.91135M6.72001 17.734C6.72 19.9105 8.43923 21.6749 10.56 21.6749H12.8094C13.8279 21.6749 14.8046 21.2597 15.5247 20.5206L19.0353 16.9178C19.7554 16.1788 20.16 15.1764 20.16 14.1312V9.85223C20.16 7.67574 18.4408 5.91135 16.32 5.91135M6.72001 17.734C4.59923 17.734 2.88 15.9696 2.88 13.7931L2.88001 5.91135C2.88001 3.73485 4.59923 1.97046 6.72001 1.97046L12.48 1.97046C14.6008 1.97046 16.32 3.73485 16.32 5.91135M14.4 21.6749V19.7044C14.4 17.528 16.1192 15.7636 18.24 15.7636H20.16" stroke="#797C7B" stroke-width="1.5" stroke-linejoin="round"/>
</svg>
