<svg width="47" height="30" viewBox="0 0 47 30" fill="none" xmlns="http://www.w3.org/2000/svg">
<mask id="mask0_404_1273" style="mask-type:alpha" maskUnits="userSpaceOnUse" x="17" y="0" width="30" height="30">
<rect x="17" width="30" height="30" fill="#D9D9D9"/>
</mask>
<g mask="url(#mask0_404_1273)">
<path d="M32 25C31.3125 25 30.7242 24.7554 30.235 24.2663C29.745 23.7763 29.5 23.1875 29.5 22.5C29.5 21.8125 29.745 21.2237 30.235 20.7337C30.7242 20.2446 31.3125 20 32 20C32.6875 20 33.2763 20.2446 33.7663 20.7337C34.2554 21.2237 34.5 21.8125 34.5 22.5C34.5 23.1875 34.2554 23.7763 33.7663 24.2663C33.2763 24.7554 32.6875 25 32 25ZM32 17.5C31.3125 17.5 30.7242 17.255 30.235 16.765C29.745 16.2758 29.5 15.6875 29.5 15C29.5 14.3125 29.745 13.7237 30.235 13.2337C30.7242 12.7446 31.3125 12.5 32 12.5C32.6875 12.5 33.2763 12.7446 33.7663 13.2337C34.2554 13.7237 34.5 14.3125 34.5 15C34.5 15.6875 34.2554 16.2758 33.7663 16.765C33.2763 17.255 32.6875 17.5 32 17.5ZM32 10C31.3125 10 30.7242 9.755 30.235 9.265C29.745 8.77583 29.5 8.1875 29.5 7.5C29.5 6.8125 29.745 6.22417 30.235 5.735C30.7242 5.245 31.3125 5 32 5C32.6875 5 33.2763 5.245 33.7663 5.735C34.2554 6.22417 34.5 6.8125 34.5 7.5C34.5 8.1875 34.2554 8.77583 33.7663 9.265C33.2763 9.755 32.6875 10 32 10Z" fill="white"/>
</g>
<path d="M1 22.9583C1 22.24 1.28534 21.5512 1.79325 21.0433C2.30116 20.5353 2.99004 20.25 3.70833 20.25H18.3333" stroke="white" stroke-width="2" stroke-linecap="round" stroke-linejoin="round"/>
<path d="M3.70833 4H18.3333V25.6667H3.70833C2.99004 25.6667 2.30116 25.3813 1.79325 24.8734C1.28534 24.3655 1 23.6766 1 22.9583V6.70833C1 5.99004 1.28534 5.30116 1.79325 4.79325C2.30116 4.28534 2.99004 4 3.70833 4Z" stroke="white" stroke-width="2" stroke-linecap="round" stroke-linejoin="round"/>
</svg>
