<svg width="298" height="100" viewBox="0 0 298 100" fill="none" xmlns="http://www.w3.org/2000/svg">
<g clip-path="url(#clip0_0_3047)">
<path d="M153.59 40.0543L150.503 48.9101V48.7476H125.885L139.535 59.3095H158.303L166.265 34.692L157.49 28.3549L153.59 40.0543Z" fill="white"/>
<path d="M156.759 25.6737L168.133 33.9608L160.415 57.7658L174.064 47.8538L179.833 29.9797L158.953 14.868L150.422 21.0427L156.759 25.6737Z" fill="white"/>
<path d="M179.264 27.5424L174.064 11.5369L158.871 0.568726L138.154 15.5992L141.403 25.6737L158.953 12.8369L179.264 27.5424Z" fill="white"/>
<path d="M140.754 28.2736L136.366 14.7868L156.353 0H139.535L124.342 11.2119L132.223 35.7482H142.947L140.754 28.2736Z" fill="white"/>
<path d="M145.141 37.3731H131.085L123.367 13.7305L118.167 29.4922L124.017 47.1226H149.609L152.94 37.3731H145.141Z" fill="white"/>
<path d="M87.8563 87.3559C86.2058 88.3372 84.4081 88.8279 82.4632 88.8279C80.554 88.8279 78.792 88.3729 77.1772 87.4629C75.5624 86.5529 74.2822 85.3217 73.3365 83.7694C72.3908 82.2171 71.918 80.522 71.918 78.6841C71.918 76.8641 72.3908 75.178 73.3365 73.6256C74.2822 72.0733 75.5624 70.8421 77.1772 69.9321C78.792 69.0221 80.554 68.5671 82.4632 68.5671C84.3903 68.5671 86.1835 69.0533 87.8429 70.0258C89.5023 70.9982 90.8049 72.2963 91.7505 73.92L87.8161 75.4456C87.1916 74.5535 86.4021 73.8219 85.4475 73.2509C84.4929 72.6799 83.4981 72.3945 82.4632 72.3945C81.3213 72.3945 80.2685 72.6844 79.305 73.2643C78.3415 73.8442 77.5787 74.6159 77.0166 75.5794C76.4546 76.543 76.1735 77.5779 76.1735 78.6841C76.1735 79.7904 76.4546 80.8298 77.0166 81.8022C77.5787 82.7747 78.3415 83.5508 79.305 84.1307C80.2685 84.7106 81.3213 85.0006 82.4632 85.0006C83.4981 85.0006 84.4929 84.7106 85.4475 84.1307C86.4021 83.5508 87.1916 82.8059 87.8161 81.8959L91.7505 83.4215C90.8049 85.063 89.5068 86.3745 87.8563 87.3559ZM112.252 88.4532H108.05V80.8521H98.8699V88.4532H94.6679V68.8883H98.8699V77.1853H108.05V68.8883H112.252V88.4532ZM125.233 68.2727L135.966 88.4532H131.335L129.783 85.4556H120.656L119.157 88.4532H114.5L125.233 68.2727ZM127.749 81.8424L125.233 76.7303L122.744 81.8424H127.749ZM143.326 72.555V88.4532H139.07V72.555H133.369V68.8883H149V72.555H143.326ZM155.156 84.2645C156.423 84.7731 157.583 85.0273 158.635 85.0273C159.742 85.0273 160.62 84.8132 161.272 84.385C161.923 83.9568 162.248 83.4482 162.248 82.8594C162.248 82.3776 162.057 81.9851 161.673 81.6818C161.289 81.3784 160.803 81.1509 160.214 80.9993C159.626 80.8476 158.849 80.6826 157.886 80.5041C156.601 80.29 155.424 80.0134 154.353 79.6744C153.282 79.3354 152.31 78.7466 151.436 77.908C150.561 77.0693 150.124 75.9363 150.124 74.5089C150.124 72.4034 150.896 70.8912 152.439 69.9723C153.983 69.0533 155.798 68.5939 157.886 68.5939C159.492 68.5939 160.888 68.8125 162.075 69.2496C163.261 69.6868 164.443 70.3425 165.621 71.2168L163.266 74.4286C162.391 73.8041 161.481 73.3134 160.536 72.9565C159.59 72.5996 158.653 72.4212 157.725 72.4212C156.904 72.4212 156.137 72.5684 155.423 72.8628C154.71 73.1572 154.353 73.6524 154.353 74.3483C154.353 74.7765 154.536 75.12 154.902 75.3787C155.267 75.6374 155.669 75.8248 156.106 75.9408C156.543 76.0567 157.252 76.2218 158.234 76.4359L159.197 76.6233C160.678 76.9087 161.905 77.2255 162.877 77.5734C163.85 77.9213 164.693 78.5057 165.407 79.3265C166.12 80.1473 166.477 81.2892 166.477 82.7523C166.477 84.7329 165.777 86.2407 164.376 87.2756C162.976 88.3105 161.08 88.8279 158.689 88.8279C155.192 88.8279 152.247 87.8109 149.856 85.7767L152.105 82.5382C152.872 83.1806 153.889 83.756 155.156 84.2645ZM176.996 72.555V88.4532H172.74V72.555H167.039V68.8883H182.67V72.555H176.996ZM189.067 87.4629C187.461 86.5529 186.185 85.3173 185.239 83.756C184.294 82.1948 183.821 80.4952 183.821 78.6574C183.821 76.8374 184.294 75.1467 185.239 73.5855C186.185 72.0242 187.461 70.7886 189.067 69.8786C190.672 68.9686 192.43 68.5136 194.339 68.5136C196.248 68.5136 198.015 68.9686 199.639 69.8786C201.262 70.7886 202.547 72.0242 203.493 73.5855C204.438 75.1467 204.911 76.8374 204.911 78.6574C204.911 80.4952 204.438 82.1948 203.493 83.756C202.547 85.3173 201.262 86.5529 199.639 87.4629C198.015 88.3729 196.248 88.8279 194.339 88.8279C192.43 88.8279 190.672 88.3729 189.067 87.4629ZM191.181 73.2375C190.217 73.8174 189.45 74.5891 188.879 75.5527C188.308 76.5162 188.023 77.5511 188.023 78.6574C188.023 79.7636 188.308 80.803 188.879 81.7754C189.45 82.7479 190.217 83.5285 191.181 84.1173C192.145 84.7062 193.197 85.0006 194.339 85.0006C195.481 85.0006 196.538 84.7062 197.511 84.1173C198.483 83.5285 199.251 82.7479 199.813 81.7754C200.375 80.803 200.656 79.7636 200.656 78.6574C200.656 77.5511 200.375 76.5162 199.813 75.5527C199.251 74.5891 198.483 73.8174 197.511 73.2375C196.538 72.6576 195.481 72.3677 194.339 72.3677C193.197 72.3677 192.145 72.6576 191.181 73.2375ZM212.566 88.4532H208.364V68.2727L221.853 80.2097V68.9151H226.082V89.0688L212.566 77.3191V88.4532Z" fill="white"/>
</g>
<defs>
<clipPath id="clip0_0_3047">
<rect width="298" height="99.3333" fill="white"/>
</clipPath>
</defs>
</svg>
