<svg width="24" height="24" viewBox="0 0 24 24" fill="none" xmlns="http://www.w3.org/2000/svg">
<path fill-rule="evenodd" clip-rule="evenodd" d="M5.6399 8.49753H3.3599C2.82998 8.49753 2.3999 8.93891 2.3999 9.48275V14.1626C2.3999 14.7064 2.82998 15.1478 3.3599 15.1478H5.6399L9.45974 18.469C10.0837 19.0118 11.0399 18.5566 11.0399 17.7172V5.92807C11.0399 5.08867 10.0828 4.63349 9.45974 5.17635L5.6399 8.49753Z" stroke="white" stroke-width="1.5" stroke-linecap="round" stroke-linejoin="round"/>
<path d="M14.9155 15.742C16.031 15.0307 16.8 13.5509 16.8 11.8277C16.8 10.1045 16.031 8.62376 14.9155 7.90356" stroke="white" stroke-width="1.5" stroke-linecap="round" stroke-linejoin="round"/>
<path d="M17.7648 18.7832C19.5005 17.2512 20.64 14.7093 20.64 11.8256C20.64 8.93791 19.4986 6.39407 17.76 4.86304" stroke="white" stroke-width="1.5" stroke-linecap="round" stroke-linejoin="round"/>
</svg>
