<svg width="23" height="25" viewBox="0 0 23 25" fill="none" xmlns="http://www.w3.org/2000/svg">
<path d="M20.6097 14.3693L17.9011 12.2845C16.4937 11.2012 14.5702 11.3131 13.2811 12.5534L9.50638 16.1852C8.21727 17.4255 6.29378 17.5374 4.88632 16.4541L2.17773 14.3693M5.86413 22.2511H16.9233C18.9593 22.2511 20.6097 20.4867 20.6097 18.3102V6.48752C20.6097 4.31103 18.9593 2.54663 16.9233 2.54663H5.86413C3.82819 2.54663 2.17773 4.31103 2.17773 6.48752V18.3102C2.17773 20.4867 3.82819 22.2511 5.86413 22.2511ZM10.4721 8.95057C10.4721 10.3109 9.4406 11.4136 8.16813 11.4136C6.89567 11.4136 5.86413 10.3109 5.86413 8.95057C5.86413 7.59026 6.89567 6.48752 8.16813 6.48752C9.4406 6.48752 10.4721 7.59026 10.4721 8.95057Z" stroke="#797C7B" stroke-width="1.5" stroke-linecap="round"/>
</svg>
