<svg width="25" height="26" viewBox="0 0 25 26" fill="none" xmlns="http://www.w3.org/2000/svg">
<path fill-rule="evenodd" clip-rule="evenodd" d="M20.643 17.4998C21.4022 16.1122 21.84 14.5134 21.84 12.8078C21.84 7.50215 17.6498 3.2019 12.48 3.2019C7.31015 3.2019 3.12 7.50215 3.12 12.8078C3.12 18.1135 7.31015 22.4137 12.48 22.4137C14.1419 22.4137 15.6998 21.9644 17.0518 21.1852L21.84 22.4137L20.643 17.4998Z" stroke="#925FE2" stroke-width="1.5" stroke-linecap="round" stroke-linejoin="round"/>
<path d="M12.2959 13.1526C12.3978 13.048 12.5621 13.048 12.664 13.1526C12.7659 13.2572 12.7659 13.4258 12.664 13.5304C12.5621 13.635 12.3978 13.635 12.2959 13.5304C12.195 13.4258 12.195 13.2572 12.2959 13.1526" stroke="#925FE2" stroke-width="1.5" stroke-linecap="round" stroke-linejoin="round"/>
<path d="M8.13595 13.1526C8.23787 13.048 8.40219 13.048 8.50411 13.1526C8.60603 13.2572 8.60603 13.4258 8.50411 13.5304C8.40219 13.635 8.23787 13.635 8.13595 13.5304C8.03507 13.4258 8.03507 13.2572 8.13595 13.1526" stroke="#925FE2" stroke-width="1.5" stroke-linecap="round" stroke-linejoin="round"/>
<path d="M16.4559 13.1526C16.5578 13.048 16.7221 13.048 16.8241 13.1526C16.926 13.2572 16.926 13.4258 16.8241 13.5304C16.7221 13.635 16.5578 13.635 16.4559 13.5304C16.355 13.4258 16.355 13.2572 16.4559 13.1526" stroke="#925FE2" stroke-width="1.5" stroke-linecap="round" stroke-linejoin="round"/>
</svg>
