<svg width="24" height="24" viewBox="0 0 24 24" fill="none" xmlns="http://www.w3.org/2000/svg">
<path d="M11.52 13.7932C10.4597 13.7932 9.60004 12.911 9.60004 11.8227C9.60004 10.7345 10.4597 9.85229 11.52 9.85229C12.5804 9.85229 13.44 10.7345 13.44 11.8227C13.44 12.911 12.5804 13.7932 11.52 13.7932Z" fill="#925FE2"/>
<path d="M19.2 13.7932C18.1397 13.7932 17.28 12.911 17.28 11.8227C17.28 10.7345 18.1397 9.85229 19.2 9.85229C20.2604 9.85229 21.12 10.7345 21.12 11.8227C21.12 12.911 20.2604 13.7932 19.2 13.7932Z" fill="#925FE2"/>
<path d="M3.84004 13.7932C2.77966 13.7932 1.92004 12.911 1.92004 11.8227C1.92004 10.7345 2.77966 9.85229 3.84004 9.85229C4.90043 9.85229 5.76004 10.7345 5.76004 11.8227C5.76004 12.911 4.90043 13.7932 3.84004 13.7932Z" fill="#925FE2"/>
</svg>
