<svg width="62" height="60" viewBox="0 0 62 60" fill="none" xmlns="http://www.w3.org/2000/svg">
<path d="M35.5903 40.0543L32.503 48.9101V48.7476H7.8855L21.5348 59.3095H40.3026L48.2647 34.692L39.4901 28.3549L35.5903 40.0543Z" fill="white"/>
<path d="M38.7589 25.6737L50.1334 33.9608L42.415 57.7658L56.0643 47.8538L61.8328 29.9797L40.9526 14.868L32.4218 21.0427L38.7589 25.6737Z" fill="white"/>
<path d="M61.2641 27.5424L56.0643 11.5369L40.8713 0.568726L20.1536 15.5992L23.4035 25.6737L40.9526 12.8369L61.2641 27.5424Z" fill="white"/>
<path d="M22.7535 28.2736L18.3663 14.7868L38.3528 0H21.5348L6.34186 11.2119L14.2227 35.7482H24.9472L22.7535 28.2736Z" fill="white"/>
<path d="M27.1408 37.3731H13.0853L5.36691 13.7305L0.167175 29.4922L6.01688 47.1226H31.6093L34.9404 37.3731H27.1408Z" fill="white"/>
</svg>
