<svg width="15" height="15" viewBox="0 0 15 15" fill="none" xmlns="http://www.w3.org/2000/svg">
<path d="M10.6269 0.310272L3.56186 2.65746C-1.18729 4.24572 -1.18729 6.83546 3.56186 8.4159L5.65868 9.11223L6.35501 11.2091C7.93545 15.9582 10.533 15.9582 12.1135 11.2091L14.4685 4.15184C15.5169 0.983132 13.7956 -0.745963 10.6269 0.310272ZM10.8773 4.51956L7.90416 7.50832C7.7868 7.62568 7.63814 7.68044 7.48949 7.68044C7.34083 7.68044 7.19218 7.62568 7.07482 7.50832C6.84792 7.28142 6.84792 6.90587 7.07482 6.67898L10.0479 3.69022C10.2748 3.46333 10.6504 3.46333 10.8773 3.69022C11.1042 3.91712 11.1042 4.29267 10.8773 4.51956Z" fill="white"/>
</svg>
