<svg width="26" height="27" viewBox="0 0 26 27" fill="none" xmlns="http://www.w3.org/2000/svg">
<path fill-rule="evenodd" clip-rule="evenodd" d="M6.254 9.66691H3.72912C3.14229 9.66691 2.66602 10.1557 2.66602 10.7579V15.9404C2.66602 16.5426 3.14229 17.0314 3.72912 17.0314H6.254L10.4841 20.7093C11.1751 21.3105 12.234 20.8064 12.234 19.8768V6.82148C12.234 5.89191 11.1741 5.38785 10.4841 5.98902L6.254 9.66691Z" stroke="white" stroke-width="1.5" stroke-linecap="round" stroke-linejoin="round"/>
<path d="M16.5259 17.6896C17.7612 16.9019 18.6128 15.2631 18.6128 13.3549C18.6128 11.4467 17.7612 9.80683 16.5259 9.00928" stroke="white" stroke-width="1.5" stroke-linecap="round" stroke-linejoin="round"/>
<path d="M19.6811 21.0574C21.6032 19.3608 22.8651 16.5459 22.8651 13.3525C22.8651 10.1546 21.6011 7.33756 19.6758 5.64209" stroke="white" stroke-width="1.5" stroke-linecap="round" stroke-linejoin="round"/>
</svg>
